<svg width="449" height="90" viewBox="0 0 449 90" fill="none" xmlns="http://www.w3.org/2000/svg">
<rect x="1" y="1" width="447" height="88" stroke="black" stroke-width="2"/>
<path d="M80.4364 33.0601C83.5345 33.388 86.4696 33.5519 89.6764 33.5519C96.1988 33.5519 102.884 33.0601 108.374 31.9126V36.1202C102.613 37.1038 95.9814 37.541 89.6221 37.541C86.4696 37.541 83.6432 37.4317 80.4907 37.2131L80.4364 33.0601ZM99.46 23.2787C99.297 24.3716 99.1883 25.5191 99.1339 26.5574C99.0252 28.5792 98.9709 32.459 98.9709 35.6831C98.9709 44.0984 99.7862 52.6229 99.7862 58.2514C99.7862 62.7322 97.7207 67.1038 90.383 67.1038C83.0997 67.1038 79.1319 64.153 79.1319 59.235C79.1319 54.6448 83.154 51.0382 90.3287 51.0382C99.46 51.0382 105.819 55.6831 110.385 59.8361L108.048 63.4426C102.341 58.0874 96.8511 54.3716 89.9482 54.3716C85.8717 54.3716 83.0453 56.1749 83.0453 58.7978C83.0453 61.6393 85.7086 63.1148 89.6764 63.1148C94.2421 63.1148 95.5466 60.8197 95.5466 57.1585C95.5466 53.224 94.84 43.0055 94.84 35.7923C94.84 32.0219 94.7857 28.5792 94.7857 26.6667C94.7857 25.6831 94.7313 24.2623 94.5682 23.2787H99.46ZM72.6638 23.6612C72.3377 24.5355 71.9029 26.3388 71.6855 27.3224C70.5984 32.4044 68.9678 43.224 68.9678 49.3443C68.9678 52.0219 69.1309 54.3169 69.5113 56.9945C70.381 54.4809 71.7398 51.1475 72.6638 48.9071L74.8923 50.6557C73.5335 54.4809 71.5224 60.0546 70.9789 62.7322C70.8158 63.4973 70.7071 64.5902 70.7615 65.1913C70.8158 65.7377 70.8702 66.5574 70.9245 67.1038L67.0654 67.4317C66.0327 63.4973 65 57.4863 65 50.1093C65 42.0765 66.848 31.6393 67.5003 27.1585C67.7177 25.847 67.8264 24.4262 67.8807 23.224L72.6638 23.6612Z" fill="black"/>
<path d="M136.149 22.5683C135.714 24.0437 135.442 25.7377 135.116 27.1585C134.355 31.5301 132.181 42.0765 130.333 47.1585C135.062 43.8251 139.953 42.459 145.606 42.459C154.248 42.459 159.303 46.8852 159.303 53.2787C159.303 64.6994 147.726 68.9071 131.202 67.1585L130.061 62.7869C142.671 64.5355 154.846 62.4044 154.846 53.388C154.846 49.3443 151.531 46.1749 145.171 46.1749C138.703 46.1749 132.67 48.4153 129.083 52.7322C128.43 53.5519 127.941 54.3169 127.398 55.2459L123.376 53.8251C127.506 45.6831 130.387 32.1311 131.039 26.8852C131.257 25.1366 131.365 23.8251 131.257 22.3497L136.149 22.5683ZM119.245 29.5628C122.125 30.0546 126.256 30.4372 129.517 30.4372C136.475 30.4372 147.182 29.6175 155.716 27.7049L155.825 31.9126C148.106 33.2787 137.018 34.3716 129.572 34.3716C125.876 34.3716 122.397 34.0984 119.299 33.8251L119.245 29.5628Z" fill="black"/>
<path d="M183.925 34.3716C183.708 35.0273 183.49 35.9016 183.327 36.612C182.675 39.5082 181.805 45.9563 181.968 49.5082C185.121 41.8033 192.839 37.0492 200.286 37.0492C209.363 37.0492 213.983 42.5137 213.983 49.235C213.983 56.612 209.634 62.8415 199.905 62.8415C194.633 62.8415 189.741 60 187.186 54.6995L189.469 51.5847C191.589 56.0656 194.959 58.8525 199.905 58.8525C206.808 58.8525 210.069 54.8634 210.069 49.3443C210.069 44.6448 207.243 40.6557 200.177 40.6557C190.719 40.6557 184.414 48.0874 183.056 54.6448C182.838 55.4098 182.675 56.3388 182.729 57.377C182.784 58.3607 183.11 60.6557 183.382 61.8033L179.74 62.2951C178.87 59.5628 178.164 55.0273 178.164 50.7104C178.164 45.4098 179.033 38.7432 179.36 36.2842C179.414 35.4098 179.468 34.6448 179.414 34.0437L183.925 34.3716ZM199.688 31.7486C200.34 34.918 201.21 41.3661 201.21 47.8689C201.21 57.3224 199.035 65.3005 191.861 70L188.165 67.7049C195.394 63.6612 197.405 56.3388 197.405 47.5956C197.405 41.2022 196.698 36.8306 196.209 34.4262C195.992 33.4973 195.72 32.623 195.448 31.8579L199.688 31.7486Z" fill="black"/>
<path d="M272.304 30.7104C271.76 31.3115 271.271 31.9126 270.945 32.4044C266.868 39.1257 259.368 48.7432 249.747 55.7377L246.377 52.6776C255.074 46.612 262.085 37.7596 264.966 32.5683C260.074 32.5683 236.104 32.5683 233.006 32.5683C230.832 32.5683 228.495 32.7322 227.462 32.8415V27.9781C228.93 28.1967 231.104 28.3607 233.006 28.3607C235.778 28.3607 259.966 28.3607 265.401 28.3607C266.868 28.3607 268.119 28.2514 268.88 27.9781L272.304 30.7104ZM246.703 56.6667C243.442 53.388 237.192 47.9781 234.311 45.9016L237.789 43.0601C240.29 44.8634 246.595 50.0546 250.508 53.8798C253.932 57.3224 258.172 61.8033 260.509 64.6448L256.541 67.8142C254.53 65.0273 250.182 60.2186 246.703 56.6667Z" fill="black"/>
<path d="M302.47 33.9344C303.394 36.1202 306.057 43.3333 306.709 45.6831L302.687 47.1585C302.089 44.6448 299.589 37.7049 298.448 35.3005L302.47 33.9344ZM322.146 36.9945C321.765 38.0874 321.494 38.9617 321.276 39.6721C319.863 45.6831 317.471 51.5847 313.612 56.5027C308.558 62.8962 301.926 67.1585 295.893 69.4535L292.306 65.7923C298.556 63.9344 305.514 59.7814 309.971 54.2076C313.83 49.4536 316.602 42.459 317.471 35.4645L322.146 36.9945ZM289.806 36.6667C290.893 38.9617 293.773 46.1202 294.752 49.0164L290.675 50.5464C289.806 47.7049 286.87 40.1093 285.783 38.1967L289.806 36.6667Z" fill="black"/>
<path d="M374.325 26.1202C374.325 28.1421 375.901 29.7268 377.912 29.7268C379.869 29.7268 381.5 28.1421 381.5 26.1202C381.5 24.153 379.869 22.5137 377.912 22.5137C375.901 22.5137 374.325 24.153 374.325 26.1202ZM371.825 26.1202C371.825 22.7322 374.543 20 377.912 20C381.282 20 384 22.7322 384 26.1202C384 29.5082 381.282 32.2404 377.912 32.2404C374.543 32.2404 371.825 29.5082 371.825 26.1202ZM376.554 29.7814C376.173 30.5464 375.956 31.4754 375.738 32.5137C374.543 38.2514 371.934 47.1038 367.585 52.6776C362.639 59.1257 356.171 64.153 346.224 67.3224L342.528 63.224C353.073 60.5464 359.161 55.9016 363.726 50.0546C367.585 45.1366 370.086 37.4863 370.846 32.2404C367.694 32.2404 346.17 32.2404 343.018 32.2404C340.843 32.2404 338.995 32.3497 337.637 32.459V27.5956C339.104 27.7596 341.278 27.9781 343.072 27.9781C346.17 27.9781 367.857 27.9781 370.303 27.9781C371.173 27.9781 372.205 27.9235 373.238 27.6503L376.554 29.7814Z" fill="black"/>
</svg>
